<?xml version="1.0" standalone="no"?>
<!DOCTYPE svg PUBLIC "-//W3C//DTD SVG 20010904//EN"
 "http://www.w3.org/TR/2001/REC-SVG-20010904/DTD/svg10.dtd">
<svg version="1.0" xmlns="http://www.w3.org/2000/svg"
 width="1612.000000pt" height="1612.000000pt" viewBox="0 0 1612.000000 1612.000000"
 preserveAspectRatio="xMidYMid meet">
<metadata>
Created by potrace 1.14, written by Peter Selinger 2001-2017
</metadata>
<g transform="translate(0.000000,1612.000000) scale(0.100000,-0.100000)"
fill="#000000" stroke="none">
<path d="M7837 15086 c-26 -7 -67 -27 -90 -43 -53 -39 -127 -145 -171 -248
-19 -44 -942 -2460 -2051 -5370 -1109 -2909 -2030 -5324 -2046 -5365 -100
-251 -268 -480 -451 -616 -80 -59 -239 -138 -343 -169 -86 -26 -238 -55 -289
-55 -56 0 -166 -37 -220 -74 -70 -48 -107 -115 -114 -206 -9 -133 50 -243 156
-288 110 -48 82 -47 1872 -47 1593 0 1689 1 1762 18 47 11 97 31 125 50 120
80 151 294 62 417 -55 76 -134 106 -354 135 -238 32 -361 101 -469 263 -131
198 -187 467 -187 893 0 445 55 850 212 1572 l32 147 1952 0 c1851 0 1953 -1
1960 -17 32 -85 215 -616 308 -898 227 -687 311 -1029 336 -1365 l9 -115 -57
-53 c-231 -220 -567 -370 -919 -412 -241 -29 -310 -53 -372 -129 -60 -72 -73
-112 -68 -214 9 -195 97 -267 356 -288 84 -7 970 -9 2637 -7 2284 3 2516 5
2576 20 157 39 232 119 246 261 9 96 -16 170 -77 228 -59 58 -118 81 -276 107
-158 27 -248 62 -370 144 -209 139 -379 362 -584 761 -55 107 -4053 9199
-4710 10710 -62 142 -108 209 -163 236 -56 27 -156 35 -220 17z m2233 -6018
c1180 -2685 2160 -4918 2178 -4963 100 -242 284 -580 423 -777 38 -53 69 -99
69 -102 0 -3 -565 -6 -1256 -6 l-1256 0 56 51 c91 83 144 210 167 402 71 586
-494 2295 -1728 5232 -306 729 -513 1209 -989 2298 l-454 1038 317 854 c174
470 319 855 322 855 3 0 971 -2197 2151 -4882z m-2785 1606 c519 -1167 1363
-3193 1616 -3876 l28 -78 -1739 0 -1739 0 30 113 c308 1162 833 2687 1527
4436 6 16 -1 31 277 -595z m-2870 -6081 c-27 -388 16 -790 117 -1103 16 -50
73 -179 116 -262 2 -5 -210 -8 -472 -8 -262 0 -476 2 -476 5 0 3 25 35 56 72
118 139 191 270 290 526 249 637 359 906 367 898 6 -6 6 -55 2 -128z"/>
</g>
</svg>
